<?xml version="1.0" encoding="utf-8"?>
<!-- Generator: Adobe Illustrator 25.2.0, SVG Export Plug-In . SVG Version: 6.00 Build 0)  -->
<svg version="1.1" id="Layer_1" xmlns="http://www.w3.org/2000/svg" xmlns:xlink="http://www.w3.org/1999/xlink" x="0px" y="0px"
	 viewBox="0 0 1920 1080" style="enable-background:new 0 0 1920 1080;" xml:space="preserve">
<style type="text/css">
	.st0{stroke:#231F20;stroke-miterlimit:10;}
	.st1{fill:url(#SVGID_1_);stroke:#231F20;stroke-miterlimit:10;}
	.st2{fill:url(#SVGID_2_);stroke:#231F20;stroke-miterlimit:10;}
	.st3{fill:url(#SVGID_3_);stroke:#231F20;stroke-miterlimit:10;}
	.st4{fill:url(#SVGID_4_);stroke:#231F20;stroke-miterlimit:10;}
	.st5{fill:url(#SVGID_5_);stroke:#231F20;stroke-miterlimit:10;}
	.st6{fill:url(#SVGID_6_);stroke:#231F20;stroke-miterlimit:10;}
	.st7{fill:url(#SVGID_7_);stroke:#231F20;stroke-miterlimit:10;}
	.st8{fill:url(#SVGID_8_);stroke:#231F20;stroke-miterlimit:10;}
	.st9{fill:url(#SVGID_9_);stroke:#231F20;stroke-miterlimit:10;}
	.st10{fill:url(#SVGID_10_);stroke:#231F20;stroke-miterlimit:10;}
	.st11{fill:url(#SVGID_11_);stroke:#231F20;stroke-miterlimit:10;}
	.st12{fill:url(#SVGID_12_);stroke:#231F20;stroke-miterlimit:10;}
	.st13{fill:url(#SVGID_13_);stroke:#231F20;stroke-miterlimit:10;}
</style>
<rect class="st0" width="1920" height="1080"/>
<g>
	<g>
		<linearGradient id="SVGID_1_" gradientUnits="userSpaceOnUse" x1="731.984" y1="539.41" x2="761.2209" y2="539.41">
			<stop  offset="0" style="stop-color:#FFEA75"/>
			<stop  offset="0.5007" style="stop-color:#FFD45D"/>
			<stop  offset="1" style="stop-color:#F8AF3C"/>
		</linearGradient>
		<path class="st1" d="M744.96,576.05h-12.98v-72.11h12.19v8.33c2.14-3.19,4.6-5.56,7.37-7.11c2.77-1.55,6-2.35,9.67-2.39v13.57
			c-5.81,0.44-9.98,2.15-12.49,5.15c-2.51,2.99-3.77,7.81-3.77,14.45V576.05z"/>
		<linearGradient id="SVGID_2_" gradientUnits="userSpaceOnUse" x1="768.3006" y1="551.6684" x2="836.8038" y2="551.6684">
			<stop  offset="0" style="stop-color:#FFEA75"/>
			<stop  offset="0.5007" style="stop-color:#FFD45D"/>
			<stop  offset="1" style="stop-color:#F8AF3C"/>
		</linearGradient>
		<path class="st2" d="M768.3,503.95h13.96l19.47,53.69l21.11-53.69h13.96L798,599.39h-13.7l10.03-25.37L768.3,503.95z"/>
		<linearGradient id="SVGID_3_" gradientUnits="userSpaceOnUse" x1="843.9484" y1="550.882" x2="919.0721" y2="550.882">
			<stop  offset="0" style="stop-color:#FFEA75"/>
			<stop  offset="0.5007" style="stop-color:#FFD45D"/>
			<stop  offset="1" style="stop-color:#F8AF3C"/>
		</linearGradient>
		<path class="st3" d="M856.93,567.34v32.06h-12.98v-95.44h13.11v8.85c3.32-3.41,7.02-6,11.11-7.77c4.09-1.77,8.44-2.65,13.08-2.65
			c10.88,0,19.91,3.61,27.07,10.82c7.17,7.21,10.75,16.26,10.75,27.14c0,5.03-0.9,9.81-2.69,14.36c-1.79,4.55-4.37,8.59-7.74,12.13
			c-3.63,3.8-7.59,6.61-11.9,8.42c-4.31,1.81-9.21,2.72-14.72,2.72c-4.9,0-9.43-0.89-13.6-2.65
			C864.26,573.53,860.42,570.88,856.93,567.34z M856.53,539.54c0,7.12,2.39,13.2,7.18,18.22c4.79,5.03,10.5,7.54,17.14,7.54
			c6.77,0,12.59-2.41,17.44-7.24c4.85-4.83,7.28-10.7,7.28-17.6c0-7.3-2.4-13.42-7.21-18.35c-4.81-4.94-10.68-7.41-17.63-7.41
			c-6.38,0-12.01,2.48-16.88,7.44C858.97,527.1,856.53,532.9,856.53,539.54z"/>
		<linearGradient id="SVGID_4_" gradientUnits="userSpaceOnUse" x1="924.9722" y1="528.3316" x2="958.3383" y2="528.3316">
			<stop  offset="0" style="stop-color:#FFEA75"/>
			<stop  offset="0.5007" style="stop-color:#FFD45D"/>
			<stop  offset="1" style="stop-color:#F8AF3C"/>
		</linearGradient>
		<path class="st4" d="M935.2,576.05v-60.31h-10.23v-11.8h10.23v-23.34h12.91v23.34h10.23v11.8h-10.23v60.31H935.2z"/>
		<linearGradient id="SVGID_5_" gradientUnits="userSpaceOnUse" x1="963.5173" y1="539.869" x2="1037.9198" y2="539.869">
			<stop  offset="0" style="stop-color:#FFEA75"/>
			<stop  offset="0.5007" style="stop-color:#FFD45D"/>
			<stop  offset="1" style="stop-color:#F8AF3C"/>
		</linearGradient>
		<path class="st5" d="M963.52,540.07c0-5.11,0.86-9.89,2.59-14.32c1.73-4.43,4.27-8.42,7.64-11.96c3.63-3.89,7.71-6.88,12.26-8.98
			c4.54-2.1,9.26-3.15,14.16-3.15c5.24,0,10.11,0.94,14.59,2.82c4.48,1.88,8.53,4.65,12.16,8.33c3.54,3.63,6.26,7.71,8.16,12.26
			c1.9,4.55,2.85,9.24,2.85,14.09c0,4.94-0.89,9.75-2.66,14.42s-4.25,8.76-7.44,12.26c-3.67,4.02-7.79,7.07-12.36,9.15
			c-4.57,2.08-9.43,3.11-14.59,3.11c-5.29,0-10.16-0.95-14.62-2.85s-8.46-4.71-12-8.42c-3.37-3.54-6-7.66-7.9-12.36
			C964.47,549.76,963.52,544.96,963.52,540.07z M976.96,539.93c0,7.21,2.28,13.22,6.85,18.03c4.57,4.81,10.26,7.21,17.08,7.21
			c6.69,0,12.29-2.41,16.81-7.24c4.52-4.83,6.79-10.87,6.79-18.13c0-7.3-2.26-13.33-6.79-18.09c-4.52-4.76-10.17-7.15-16.95-7.15
			c-6.73,0-12.38,2.42-16.95,7.24C979.24,526.64,976.96,532.68,976.96,539.93z"/>
		<linearGradient id="SVGID_6_" gradientUnits="userSpaceOnUse" x1="1048.6703" y1="529.1509" x2="1123.7939" y2="529.1509">
			<stop  offset="0" style="stop-color:#FFEA75"/>
			<stop  offset="0.5007" style="stop-color:#FFD45D"/>
			<stop  offset="1" style="stop-color:#F8AF3C"/>
		</linearGradient>
		<path class="st6" d="M1061.78,567.2v8.85h-13.11v-95.44h12.98v32.06c3.5-3.54,7.33-6.18,11.5-7.93c4.17-1.75,8.71-2.62,13.6-2.62
			c5.51,0,10.41,0.91,14.72,2.72c4.3,1.81,8.27,4.62,11.9,8.42c3.36,3.5,5.94,7.52,7.74,12.06c1.79,4.55,2.69,9.33,2.69,14.36
			c0,10.88-3.58,19.94-10.75,27.17c-7.17,7.23-16.19,10.85-27.07,10.85c-4.63,0-8.99-0.89-13.08-2.65
			C1068.81,573.27,1065.1,570.66,1061.78,567.2z M1061.26,540.46c0,6.64,2.44,12.44,7.31,17.4c4.87,4.96,10.5,7.44,16.88,7.44
			c6.95,0,12.83-2.46,17.63-7.37c4.81-4.92,7.21-11.05,7.21-18.39c0-6.9-2.42-12.77-7.28-17.6c-4.85-4.83-10.66-7.24-17.44-7.24
			c-6.64,0-12.36,2.51-17.14,7.54C1063.65,527.26,1061.26,533.34,1061.26,540.46z"/>
		<linearGradient id="SVGID_7_" gradientUnits="userSpaceOnUse" x1="1135.1351" y1="540.8193" x2="1195.6412" y2="540.8193">
			<stop  offset="0" style="stop-color:#FFEA75"/>
			<stop  offset="0.5007" style="stop-color:#FFD45D"/>
			<stop  offset="1" style="stop-color:#F8AF3C"/>
		</linearGradient>
		<path class="st7" d="M1195.64,576.05h-12.46v-8.06c-2.58,3.28-5.47,5.71-8.69,7.31c-3.21,1.59-6.81,2.39-10.78,2.39
			c-9.09,0-16.13-2.82-21.11-8.46c-4.98-5.64-7.47-13.57-7.47-23.8v-41.5h12.98v37.76c0,7.78,1.38,13.61,4.13,17.5
			c2.75,3.89,6.88,5.83,12.39,5.83c3.41,0,6.45-0.8,9.11-2.39c2.67-1.59,4.79-3.88,6.36-6.85c0.96-1.83,1.65-4.02,2.06-6.56
			c0.41-2.53,0.62-6.62,0.62-12.26v-33.04h12.85V576.05z"/>
		<linearGradient id="SVGID_8_" gradientUnits="userSpaceOnUse" x1="1211.3735" y1="528.3316" x2="1224.2218" y2="528.3316">
			<stop  offset="0" style="stop-color:#FFEA75"/>
			<stop  offset="0.5007" style="stop-color:#FFD45D"/>
			<stop  offset="1" style="stop-color:#F8AF3C"/>
		</linearGradient>
		<path class="st8" d="M1224.22,495.49h-12.85v-14.88h12.85V495.49z M1211.37,576.05v-72.11h12.85v72.11H1211.37z"/>
		<linearGradient id="SVGID_9_" gradientUnits="userSpaceOnUse" x1="1239.6921" y1="528.3316" x2="1252.5404" y2="528.3316">
			<stop  offset="0" style="stop-color:#FFEA75"/>
			<stop  offset="0.5007" style="stop-color:#FFD45D"/>
			<stop  offset="1" style="stop-color:#F8AF3C"/>
		</linearGradient>
		<path class="st9" d="M1239.69,576.05v-95.44h12.85v95.44H1239.69z"/>
		<linearGradient id="SVGID_10_" gradientUnits="userSpaceOnUse" x1="1264.3398" y1="529.1509" x2="1339.3978" y2="529.1509">
			<stop  offset="0" style="stop-color:#FFEA75"/>
			<stop  offset="0.5007" style="stop-color:#FFD45D"/>
			<stop  offset="1" style="stop-color:#F8AF3C"/>
		</linearGradient>
		<path class="st10" d="M1326.29,576.05v-8.85c-3.32,3.45-7.03,6.06-11.11,7.83c-4.09,1.77-8.45,2.65-13.08,2.65
			c-10.84,0-19.84-3.62-27.01-10.85c-7.17-7.23-10.75-16.29-10.75-27.17c0-5.07,0.9-9.88,2.69-14.42c1.79-4.54,4.35-8.54,7.67-12
			c3.63-3.8,7.59-6.61,11.9-8.42c4.3-1.81,9.21-2.72,14.72-2.72c4.89,0,9.43,0.87,13.6,2.62c4.17,1.75,8.01,4.39,11.51,7.93v-32.06
			h12.98v95.44H1326.29z M1277.78,539.54c0,7.3,2.41,13.42,7.24,18.35c4.83,4.94,10.74,7.41,17.73,7.41
			c6.38,0,12.01-2.48,16.88-7.44c4.87-4.96,7.31-10.76,7.31-17.4c0-7.08-2.42-13.14-7.24-18.19c-4.83-5.05-10.57-7.57-17.21-7.57
			c-6.82,0-12.64,2.4-17.47,7.21C1280.19,526.72,1277.78,532.59,1277.78,539.54z"/>
		<linearGradient id="SVGID_11_" gradientUnits="userSpaceOnUse" x1="1350.4113" y1="539.8688" x2="1424.8137" y2="539.8688">
			<stop  offset="0" style="stop-color:#FFEA75"/>
			<stop  offset="0.5007" style="stop-color:#FFD45D"/>
			<stop  offset="1" style="stop-color:#F8AF3C"/>
		</linearGradient>
		<path class="st11" d="M1364.11,544.79c1.09,6.03,3.81,10.91,8.16,14.65c4.35,3.74,9.52,5.6,15.5,5.6c4.28,0,8.18-1.03,11.7-3.08
			c3.52-2.05,6.33-4.96,8.42-8.72h14.62c-3.32,8-7.96,14.12-13.93,18.35c-5.96,4.24-12.9,6.36-20.81,6.36
			c-5.33,0-10.2-0.94-14.62-2.82c-4.41-1.88-8.41-4.7-12-8.46c-3.37-3.54-6-7.66-7.9-12.36c-1.9-4.7-2.85-9.49-2.85-14.39
			c0-5.07,0.86-9.81,2.59-14.22c1.73-4.41,4.27-8.43,7.64-12.06c3.58-3.93,7.63-6.89,12.13-8.88c4.5-1.99,9.42-2.98,14.75-2.98
			c6.34,0,12.23,1.47,17.67,4.42c5.44,2.95,9.93,7.07,13.47,12.36c2.1,3.28,3.65,6.87,4.65,10.78c1.01,3.91,1.51,8.38,1.51,13.41
			v2.03H1364.11z M1410.59,533.12c-1.62-5.94-4.41-10.54-8.39-13.8c-3.98-3.26-8.74-4.88-14.29-4.88c-5.68,0-10.61,1.67-14.78,5.02
			c-4.17,3.34-7.05,7.9-8.62,13.67H1410.59z"/>
		<linearGradient id="SVGID_12_" gradientUnits="userSpaceOnUse" x1="1436.2197" y1="539.41" x2="1465.4567" y2="539.41">
			<stop  offset="0" style="stop-color:#FFEA75"/>
			<stop  offset="0.5007" style="stop-color:#FFD45D"/>
			<stop  offset="1" style="stop-color:#F8AF3C"/>
		</linearGradient>
		<path class="st12" d="M1449.2,576.05h-12.98v-72.11h12.19v8.33c2.14-3.19,4.6-5.56,7.38-7.11c2.77-1.55,6-2.35,9.67-2.39v13.57
			c-5.81,0.44-9.98,2.15-12.49,5.15c-2.51,2.99-3.77,7.81-3.77,14.45V576.05z"/>
	</g>
	<linearGradient id="SVGID_13_" gradientUnits="userSpaceOnUse" x1="454.5433" y1="540" x2="742.7531" y2="540">
		<stop  offset="0" style="stop-color:#FFEA75"/>
		<stop  offset="0.5007" style="stop-color:#FFD45D"/>
		<stop  offset="1" style="stop-color:#F8AF3C"/>
	</linearGradient>
	<path class="st13" d="M649.65,616.64c-3.43,1.62-7.02,2.95-10.74,4.03v-25.4h-25.94v28.59c-3.13-0.09-6.24-0.36-9.33-0.85v-27.08
		H577.7v18.03c-7.25-4-13.82-9.05-19.69-15.16c-7.25-7.55-12.81-16.51-16.69-26.87c-0.2-0.55-0.38-1.1-0.58-1.65h21.71v-25.94h-26.8
		c-0.09-1.79-0.16-3.58-0.16-5.4c0-1.31,0.03-2.62,0.1-3.93h26.27v-25.94h-20.7c0.25-0.66,0.49-1.32,0.76-1.98
		c4.29-10.41,10.26-19.55,17.92-27.41c5.37-5.52,11.33-10.08,17.85-13.7v18.76h25.94v-27.51c3.06-0.45,6.17-0.69,9.33-0.77v27.62
		h25.94v-24.53c4.03,1.14,7.89,2.59,11.58,4.36c10.41,5,13.99,10.84,49.09,21.49l43.17,1.61c-36.73-20.55-49.77-35.86-67.08-46.68
		c-11.11-6.94-23.37-11.65-36.77-14.14v-62.74h-25.94v60.67c-3.15,0.06-6.26,0.24-9.33,0.54v-60.55H577.7v66.29
		c-1.65,0.59-3.29,1.22-4.92,1.89c-13.22,5.46-25.24,13.5-36.06,24.12c-11.43,11.43-20.11,24.12-26.03,38.05
		c-2.03,4.78-3.7,9.65-5.04,14.61h-51.11V535h47.33c-0.04,1.2-0.06,2.41-0.06,3.62c0,1.92,0.04,3.82,0.12,5.71h-46.8v25.94h50.53
		c0.99,3.89,2.14,7.71,3.51,11.45c4.9,13.42,12.09,25.39,21.59,35.91c11.23,12.66,23.91,22.2,38.05,28.63
		c2.91,1.32,5.88,2.5,8.9,3.55v66.73h25.94v-61.17c3.06,0.28,6.17,0.45,9.33,0.5v60.01h25.94V653.8
		c12.99-2.41,24.89-6.88,35.69-13.43c17.1-10.36,30.49-25.29,67.2-44.79h-39.81C668.35,604.77,659.91,611.79,649.65,616.64z"/>
</g>
</svg>
